<svg xmlns="http://www.w3.org/2000/svg" viewBox="0 0 100 100">
  <!-- Navy circle background -->
  <circle cx="50" cy="50" r="50" fill="#1e3a8a"/>
  <!-- Owl body -->
  <ellipse cx="50" cy="62" rx="20" ry="22" fill="white"/>
  <!-- Left eye circle -->
  <circle cx="40" cy="44" r="11" fill="white"/>
  <!-- Right eye circle -->
  <circle cx="60" cy="44" r="11" fill="white"/>
  <!-- Left pupil -->
  <circle cx="40" cy="44" r="5" fill="#1e3a8a"/>
  <!-- Right pupil -->
  <circle cx="60" cy="44" r="5" fill="#1e3a8a"/>
  <!-- Left eye shine -->
  <circle cx="42" cy="42" r="1.5" fill="white"/>
  <!-- Right eye shine -->
  <circle cx="62" cy="42" r="1.5" fill="white"/>
  <!-- Beak -->
  <polygon points="50,51 46,57 54,57" fill="#1e3a8a"/>
  <!-- Left ear tuft -->
  <polygon points="34,36 30,24 40,32" fill="white"/>
  <!-- Right ear tuft -->
  <polygon points="66,36 70,24 60,32" fill="white"/>
  <!-- Left wing -->
  <ellipse cx="28" cy="66" rx="8" ry="14" fill="white" transform="rotate(-15 28 66)"/>
  <!-- Right wing -->
  <ellipse cx="72" cy="66" rx="8" ry="14" fill="white" transform="rotate(15 72 66)"/>
  <!-- Left foot -->
  <ellipse cx="43" cy="83" rx="6" ry="3" fill="white"/>
  <!-- Right foot -->
  <ellipse cx="57" cy="83" rx="6" ry="3" fill="white"/>
</svg>